<?xml version="1.0" encoding="UTF-8" standalone="no"?>
<!-- Created with Inkscape (http://www.inkscape.org/) -->

<svg
   xmlns:dc="http://purl.org/dc/elements/1.1/"
   xmlns:cc="http://creativecommons.org/ns#"
   xmlns:rdf="http://www.w3.org/1999/02/22-rdf-syntax-ns#"
   xmlns:svg="http://www.w3.org/2000/svg"
   xmlns="http://www.w3.org/2000/svg"
   xmlns:sodipodi="http://sodipodi.sourceforge.net/DTD/sodipodi-0.dtd"
   xmlns:inkscape="http://www.inkscape.org/namespaces/inkscape"
   version="1.1"
   id="svg2200"
   xml:space="preserve"
   width="846.15784"
   height="263.43958"
   viewBox="0 0 846.15785 263.43957"
   sodipodi:docname="hvplot-unstacked.svg"
   inkscape:version="0.92.4 (5da689c313, 2019-01-14)"><metadata
     id="metadata2206"><rdf:RDF><cc:Work
         rdf:about=""><dc:format>image/svg+xml</dc:format><dc:type
           rdf:resource="http://purl.org/dc/dcmitype/StillImage" /><dc:title></dc:title></cc:Work></rdf:RDF></metadata><defs
     id="defs2204"><clipPath
       clipPathUnits="userSpaceOnUse"
       id="clipPath2218"><path
         d="m 3393.42,3012.66 -971.26,384.07 v 130.87 l 1103.62,-436.41 -132.36,-78.53"
         id="path2216"
         inkscape:connector-curvature="0" /></clipPath><clipPath
       clipPathUnits="userSpaceOnUse"
       id="clipPath2230"><path
         d="m 2422.16,2436.44 v 852.47 l 862.2,-340.95 -862.2,-511.52"
         id="path2228"
         inkscape:connector-curvature="0" /></clipPath><clipPath
       clipPathUnits="userSpaceOnUse"
       id="clipPath2242"><path
         d="m 2422.02,2208.65 v -0.01 l -820.49,486.78 820.49,-1146.9 z"
         id="path2240"
         inkscape:connector-curvature="0" /></clipPath><linearGradient
       x1="0"
       y1="0"
       x2="1"
       y2="0"
       gradientUnits="userSpaceOnUse"
       gradientTransform="matrix(-1103.62,0,0,1103.62,2422.03,2121.97)"
       spreadMethod="pad"
       id="linearGradient2252"><stop
         style="stop-opacity:1;stop-color:#f8a72c"
         offset="0"
         id="stop2244" /><stop
         style="stop-opacity:1;stop-color:#f3c126"
         offset="0.360317"
         id="stop2246" /><stop
         style="stop-opacity:1;stop-color:#eed81f"
         offset="0.63774"
         id="stop2248" /><stop
         style="stop-opacity:1;stop-color:#eed81f"
         offset="1"
         id="stop2250" /></linearGradient><clipPath
       clipPathUnits="userSpaceOnUse"
       id="clipPath2262"><path
         d="m 2422.02,2436.44 -1103.61,654.75 138.3,-193.33 965.31,-572.7 z"
         id="path2260"
         inkscape:connector-curvature="0" /></clipPath><linearGradient
       x1="0"
       y1="0"
       x2="1"
       y2="0"
       gradientUnits="userSpaceOnUse"
       gradientTransform="matrix(-1103.62,0,0,1103.62,2422.03,2708.17)"
       spreadMethod="pad"
       id="linearGradient2270"><stop
         style="stop-opacity:1;stop-color:#f8a72c"
         offset="0"
         id="stop2264" /><stop
         style="stop-opacity:1;stop-color:#eed81f"
         offset="0.63774"
         id="stop2266" /><stop
         style="stop-opacity:1;stop-color:#eed81f"
         offset="1"
         id="stop2268" /></linearGradient><clipPath
       clipPathUnits="userSpaceOnUse"
       id="clipPath2280"><path
         d="m 2422.03,2325.16 965.54,572.69 138.35,193.34 -1103.9,-654.75 v -111.28 z"
         id="path2278"
         inkscape:connector-curvature="0" /></clipPath><linearGradient
       x1="0"
       y1="0"
       x2="1"
       y2="0"
       gradientUnits="userSpaceOnUse"
       gradientTransform="matrix(-1103.89,0,0,1103.89,3525.91,2708.17)"
       spreadMethod="pad"
       id="linearGradient2290"><stop
         style="stop-opacity:1;stop-color:#ef2e33"
         offset="0"
         id="stop2282" /><stop
         style="stop-opacity:1;stop-color:#ef2e33"
         offset="0.480429"
         id="stop2284" /><stop
         style="stop-opacity:1;stop-color:#f3611b"
         offset="0.857692"
         id="stop2286" /><stop
         style="stop-opacity:1;stop-color:#f3611b"
         offset="1"
         id="stop2288" /></linearGradient><clipPath
       clipPathUnits="userSpaceOnUse"
       id="clipPath2300"><path
         d="m 2422.02,1548.52 820.7,1146.91 -820.7,-486.78 z"
         id="path2298"
         inkscape:connector-curvature="0" /></clipPath><linearGradient
       x1="0"
       y1="0"
       x2="1"
       y2="0"
       gradientUnits="userSpaceOnUse"
       gradientTransform="matrix(-1103.89,0,0,1103.89,3525.91,2121.97)"
       spreadMethod="pad"
       id="linearGradient2310"><stop
         style="stop-opacity:1;stop-color:#ef2e33"
         offset="0"
         id="stop2302" /><stop
         style="stop-opacity:1;stop-color:#ef2e33"
         offset="0.480429"
         id="stop2304" /><stop
         style="stop-opacity:1;stop-color:#f3611b"
         offset="0.857692"
         id="stop2306" /><stop
         style="stop-opacity:1;stop-color:#f3611b"
         offset="1"
         id="stop2308" /></linearGradient></defs><sodipodi:namedview
     pagecolor="#ffffff"
     bordercolor="#666666"
     borderopacity="1"
     objecttolerance="10"
     gridtolerance="10"
     guidetolerance="10"
     inkscape:pageopacity="0"
     inkscape:pageshadow="2"
     inkscape:window-width="1442"
     inkscape:window-height="862"
     id="namedview2202"
     showgrid="false"
     fit-margin-top="0"
     fit-margin-left="0"
     fit-margin-right="0"
     fit-margin-bottom="0"
     inkscape:zoom="0.43920597"
     inkscape:cx="446.62097"
     inkscape:cy="29.557713"
     inkscape:window-x="0"
     inkscape:window-y="0"
     inkscape:window-maximized="0"
     inkscape:current-layer="g2208" /><g
     id="g2208"
     inkscape:groupmode="layer"
     inkscape:label="ink_ext_XXXXXX"
     transform="matrix(1.3333333,0,0,-1.3333333,-175.788,469.90891)"><g
       id="g2214"
       clip-path="url(#clipPath2218)"
       transform="scale(0.1)"
       style="fill:none;stroke:none"><g
         id="g2220"
         transform="matrix(1119.2,0,0,529.2,2413.9,3006.9)"
         style="fill:none;stroke:none" /></g><g
       id="g11183"
       transform="translate(22.5,47.412156)"><path
         id="path6786"
         d="m 598.52361,150.49719 c -10.47546,2.3729 -15.97289,7.23746 -17.93954,15.87431 -1.43263,6.29168 -1.28609,92.41682 0.15885,93.35097 1.40976,0.91141 18.88932,3.79062 19.80634,3.26248 0.37137,-0.21388 0.67585,-19.91248 0.67661,-43.77465 0.002,-49.74179 -0.18248,-48.43406 7.20091,-51.15551 4.56551,-1.68279 4.61145,-1.92797 2.42382,-12.93689 -1.05636,-5.31606 -1.12336,-5.40443 -4.2244,-5.57203 -1.73305,-0.0936 -5.37922,0.33441 -8.10259,0.95132 z"
         style="fill:#377ab1;stroke-width:0.90028816"
         inkscape:connector-curvature="0" /><path
         id="path6784"
         transform="matrix(0.75000002,0,0,-0.75000002,131.841,352.43169)"
         d="m 691.25586,164.26758 c -19.03834,0.0278 -37.06367,10.03554 -44.91016,26.6875 -15.16794,32.18982 -0.74628,69.76077 29.94336,78.00781 17.93031,4.81831 37.90558,0.0651 49.82813,-11.85742 15.95826,-15.95825 19.63399,-46.92077 8.08789,-68.13477 -4.55496,-8.36897 -15.54434,-18.14851 -23.91211,-21.27929 -6.23215,-2.33175 -12.691,-3.4331 -19.03711,-3.42383 z m -0.54297,25.14258 c 7.07439,0.0538 14.15567,3.80292 17.92578,11.22265 2.58132,5.08014 3.03321,7.59003 3.03321,16.83789 -10e-6,14.09616 -3.25247,21.37896 -11.39063,25.50782 -12.66536,6.4257 -25.38038,0.40804 -29.60742,-14.01368 -2.59611,-8.85732 -1.67545,-21.05413 2.1582,-28.60351 3.73881,-7.36262 10.80647,-11.00497 17.88086,-10.95117 z"
         style="fill:#377ab1;stroke-width:1.20038414"
         inkscape:connector-curvature="0" /><path
         id="path6780"
         d="m 714.42173,150.24558 c -10.86994,2.56093 -17.36498,9.57631 -19.48534,21.04633 -1.46505,7.92526 -1.33928,73.80522 0.14313,74.96468 0.91768,0.71778 15.82247,3.3538 19.13112,3.3835 0.52587,0.005 1.08749,-4.48496 1.35043,-10.79539 l 0.45015,-10.80346 12.60403,-0.45014 12.60403,-0.45015 v -8.55274 -8.55273 l -12.60403,-0.45015 -12.60403,-0.45014 -0.2714,-13.95447 c -0.33682,-17.31787 0.15046,-20.93936 3.29026,-24.45341 2.99983,-3.35739 8.33787,-4.20086 16.46582,-2.60178 6.56205,1.29099 6.4364,1.4081 7.88216,-7.34629 0.7579,-4.58921 0.77301,-6.64128 0.0553,-7.50608 -2.54296,-3.06406 -20.77907,-4.96713 -29.01162,-3.02758 z"
         style="fill:#377ab1;stroke-width:0.90028816"
         inkscape:connector-curvature="0" /><path
         id="path6778"
         d="m 347.97123,151.63897 c -0.3454,0.34542 -0.62802,24.61611 -0.62802,53.93488 0,41.57586 0.24766,53.50057 1.12536,54.18706 0.91769,0.71778 15.82248,3.3538 19.13113,3.3835 0.55445,0.006 1.07321,-6.73581 1.35043,-17.54755 0.43448,-16.94461 0.51282,-17.54423 2.25072,-17.22829 0.99032,0.18004 5.85187,0.37486 10.80346,0.43294 6.64741,0.078 10.27067,-0.33137 13.84848,-1.5646 6.61613,-2.28047 12.73059,-8.35842 15.49341,-15.40086 2.05867,-5.24756 2.11985,-6.1854 2.14367,-32.86052 l 0.0245,-27.45878 h -10.35332 -10.35331 l -0.45015,25.20806 c -0.37886,21.21615 -0.6945,25.74783 -1.99325,28.61655 -2.44672,5.40444 -9.62122,7.43446 -18.02573,5.10036 l -3.36367,-0.93416 -0.23749,-28.9954 -0.23749,-28.99541 -9.95037,-0.2529 c -5.47271,-0.13909 -10.23298,0.0297 -10.57839,0.37512 z"
         style="fill:#377ab1;stroke-width:0.90028816"
         inkscape:connector-curvature="0" /><path
         id="path6776"
         d="m 443.17166,153.27069 c -5.60772,8.55847 -26.50626,66.00833 -26.50626,72.86544 0,1.34476 1.2013,1.48267 10.95474,1.25761 l 10.95474,-0.25279 4.29601,-14.85475 c 6.11215,-21.13463 10.11424,-32.87944 11.15647,-32.74054 0.78842,0.10511 7.92953,20.75661 14.12317,40.84313 l 2.08202,6.75216 10.57838,0.25366 c 9.94922,0.23854 10.57839,0.14996 10.57839,-1.48945 0,-7.04385 -24.67994,-71.86994 -28.22947,-74.14956 -0.56645,-0.36378 -4.97057,-0.66763 -9.78695,-0.67521 -8.30523,-0.0131 -8.83157,0.0999 -10.20124,2.1903 z"
         style="fill:#377ab1;stroke-width:0.90028816"
         inkscape:connector-curvature="0" /><path
         id="path6774"
         transform="matrix(0.75000002,0,0,-0.75000002,131.841,352.43169)"
         d="m 527.5332,133.09375 c -14.71078,-0.12011 -35.22615,1.58232 -38.68164,3.43164 -2.15892,1.15537 -2.25195,3.86089 -2.25195,65.7832 0,35.51816 0.37598,64.95409 0.83594,65.41407 0.45997,0.45989 7.07746,0.68488 14.70507,0.5 l 13.86915,-0.33594 0.59961,-21.60742 0.5996,-21.60742 13.20508,-0.72657 c 30.4529,-1.67836 45.76762,-8.76089 53.67578,-24.82226 3.66224,-7.43799 3.94336,-8.86581 3.94336,-20.03907 0,-19.76161 -5.31587,-30.03116 -19.41601,-37.51757 -9.84824,-5.22891 -19.26325,-7.4501 -35.20313,-8.30469 -1.79799,-0.0964 -3.77932,-0.15081 -5.88086,-0.16797 z m -1.74804,24.9043 c 7.46544,0.003 18.0519,1.4444 21.63281,3.30273 7.23439,3.75431 9.40501,7.66634 9.40234,16.94922 -0.004,9.771 -2.8349,14.52054 -10.48633,17.59766 -5.44208,2.18858 -27.27347,3.97272 -28.82421,2.35546 -0.49516,-0.51639 -0.90039,-9.48111 -0.90039,-19.92187 v -18.98437 l 3.125,-0.78321 c 1.41979,-0.35634 3.56229,-0.5165 6.05078,-0.51562 z"
         style="fill:#377ab1;stroke-width:1.20038414"
         inkscape:connector-curvature="0" /></g><g
       id="g6830"><g
         transform="scale(0.1)"
         id="g2236"><g
           id="g2238"
           clip-path="url(#clipPath2242)"><path
             d="m 2422.02,2208.65 v -0.01 l -820.49,486.78 820.49,-1146.9 v 660.13"
             style="fill:#387bb2;fill-opacity:1;fill-rule:nonzero;stroke:none"
             id="path2254"
             inkscape:connector-curvature="0" /></g></g><g
         transform="scale(0.1)"
         id="g2256"><g
           id="g2258"
           clip-path="url(#clipPath2262)"><path
             d="m 2422.02,2436.44 -1103.61,654.75 138.3,-193.33 965.31,-572.7 v 111.28"
             style="fill:#387bb2;fill-opacity:1;fill-rule:nonzero;stroke:none"
             id="path2272"
             inkscape:connector-curvature="0" /></g></g><g
         transform="scale(0.1)"
         clip-path="url(#clipPath2280)"
         id="g2276"><path
           inkscape:connector-curvature="0"
           id="path2292"
           style="fill:#fecb38;fill-opacity:1;fill-rule:nonzero;stroke:none"
           d="m 2422.03,2325.16 965.54,572.69 138.35,193.34 -1103.9,-654.75 v -111.28 h 0.01" /></g><g
         transform="scale(0.1)"
         id="g2294"><g
           id="g2296"
           clip-path="url(#clipPath2300)"><path
             d="m 2422.02,1548.52 820.7,1146.91 -820.7,-486.78 z"
             style="fill:#fecb38;fill-opacity:1;fill-rule:nonzero;stroke:none"
             id="path2312"
             inkscape:connector-curvature="0" /></g></g><path
         inkscape:connector-curvature="0"
         id="path6702"
         d="m 352.592,309.119 -13.59348,-8.00498 -96.74891,38.48826 v 12.82941 z"
         style="fill:#387bb2;fill-opacity:1;stroke:none;stroke-width:0.75px;stroke-linecap:butt;stroke-linejoin:miter;stroke-opacity:1" /><path
         sodipodi:nodetypes="cccc"
         inkscape:connector-curvature="0"
         id="path6704"
         d="M 242.24381,328.94296 328.50476,294.77914 242.202,243.644 Z"
         style="opacity:1;fill:#387bb2;fill-opacity:1;stroke:none;stroke-width:0.75px;stroke-linecap:butt;stroke-linejoin:miter;stroke-opacity:1" /></g></g></svg>