<?xml version="1.0" encoding="UTF-8" standalone="no"?>
<!-- Created with Inkscape (http://www.inkscape.org/) -->

<svg
   xmlns:dc="http://purl.org/dc/elements/1.1/"
   xmlns:cc="http://creativecommons.org/ns#"
   xmlns:rdf="http://www.w3.org/1999/02/22-rdf-syntax-ns#"
   xmlns:svg="http://www.w3.org/2000/svg"
   xmlns="http://www.w3.org/2000/svg"
   xmlns:sodipodi="http://sodipodi.sourceforge.net/DTD/sodipodi-0.dtd"
   xmlns:inkscape="http://www.inkscape.org/namespaces/inkscape"
   version="1.1"
   id="svg2200"
   xml:space="preserve"
   width="299.42664"
   height="385.89816"
   viewBox="0 0 299.42664 385.89816"
   sodipodi:docname="hvplot-stacked.svg"
   inkscape:version="0.92.4 (5da689c313, 2019-01-14)"><metadata
     id="metadata2206"><rdf:RDF><cc:Work
         rdf:about=""><dc:format>image/svg+xml</dc:format><dc:type
           rdf:resource="http://purl.org/dc/dcmitype/StillImage" /><dc:title></dc:title></cc:Work></rdf:RDF></metadata><defs
     id="defs2204"><clipPath
       clipPathUnits="userSpaceOnUse"
       id="clipPath2218"><path
         d="m 3393.42,3012.66 -971.26,384.07 v 130.87 l 1103.62,-436.41 -132.36,-78.53"
         id="path2216"
         inkscape:connector-curvature="0" /></clipPath><clipPath
       clipPathUnits="userSpaceOnUse"
       id="clipPath2230"><path
         d="m 2422.16,2436.44 v 852.47 l 862.2,-340.95 -862.2,-511.52"
         id="path2228"
         inkscape:connector-curvature="0" /></clipPath><clipPath
       clipPathUnits="userSpaceOnUse"
       id="clipPath2242"><path
         d="m 2422.02,2208.65 v -0.01 l -820.49,486.78 820.49,-1146.9 z"
         id="path2240"
         inkscape:connector-curvature="0" /></clipPath><linearGradient
       x1="0"
       y1="0"
       x2="1"
       y2="0"
       gradientUnits="userSpaceOnUse"
       gradientTransform="matrix(-1103.62,0,0,1103.62,2422.03,2121.97)"
       spreadMethod="pad"
       id="linearGradient2252"><stop
         style="stop-opacity:1;stop-color:#f8a72c"
         offset="0"
         id="stop2244" /><stop
         style="stop-opacity:1;stop-color:#f3c126"
         offset="0.360317"
         id="stop2246" /><stop
         style="stop-opacity:1;stop-color:#eed81f"
         offset="0.63774"
         id="stop2248" /><stop
         style="stop-opacity:1;stop-color:#eed81f"
         offset="1"
         id="stop2250" /></linearGradient><clipPath
       clipPathUnits="userSpaceOnUse"
       id="clipPath2262"><path
         d="m 2422.02,2436.44 -1103.61,654.75 138.3,-193.33 965.31,-572.7 z"
         id="path2260"
         inkscape:connector-curvature="0" /></clipPath><linearGradient
       x1="0"
       y1="0"
       x2="1"
       y2="0"
       gradientUnits="userSpaceOnUse"
       gradientTransform="matrix(-1103.62,0,0,1103.62,2422.03,2708.17)"
       spreadMethod="pad"
       id="linearGradient2270"><stop
         style="stop-opacity:1;stop-color:#f8a72c"
         offset="0"
         id="stop2264" /><stop
         style="stop-opacity:1;stop-color:#eed81f"
         offset="0.63774"
         id="stop2266" /><stop
         style="stop-opacity:1;stop-color:#eed81f"
         offset="1"
         id="stop2268" /></linearGradient><clipPath
       clipPathUnits="userSpaceOnUse"
       id="clipPath2280"><path
         d="m 2422.03,2325.16 965.54,572.69 138.35,193.34 -1103.9,-654.75 v -111.28 z"
         id="path2278"
         inkscape:connector-curvature="0" /></clipPath><linearGradient
       x1="0"
       y1="0"
       x2="1"
       y2="0"
       gradientUnits="userSpaceOnUse"
       gradientTransform="matrix(-1103.89,0,0,1103.89,3525.91,2708.17)"
       spreadMethod="pad"
       id="linearGradient2290"><stop
         style="stop-opacity:1;stop-color:#ef2e33"
         offset="0"
         id="stop2282" /><stop
         style="stop-opacity:1;stop-color:#ef2e33"
         offset="0.480429"
         id="stop2284" /><stop
         style="stop-opacity:1;stop-color:#f3611b"
         offset="0.857692"
         id="stop2286" /><stop
         style="stop-opacity:1;stop-color:#f3611b"
         offset="1"
         id="stop2288" /></linearGradient><clipPath
       clipPathUnits="userSpaceOnUse"
       id="clipPath2300"><path
         d="m 2422.02,1548.52 820.7,1146.91 -820.7,-486.78 z"
         id="path2298"
         inkscape:connector-curvature="0" /></clipPath><linearGradient
       x1="0"
       y1="0"
       x2="1"
       y2="0"
       gradientUnits="userSpaceOnUse"
       gradientTransform="matrix(-1103.89,0,0,1103.89,3525.91,2121.97)"
       spreadMethod="pad"
       id="linearGradient2310"><stop
         style="stop-opacity:1;stop-color:#ef2e33"
         offset="0"
         id="stop2302" /><stop
         style="stop-opacity:1;stop-color:#ef2e33"
         offset="0.480429"
         id="stop2304" /><stop
         style="stop-opacity:1;stop-color:#f3611b"
         offset="0.857692"
         id="stop2306" /><stop
         style="stop-opacity:1;stop-color:#f3611b"
         offset="1"
         id="stop2308" /></linearGradient></defs><sodipodi:namedview
     pagecolor="#ffffff"
     bordercolor="#666666"
     borderopacity="1"
     objecttolerance="10"
     gridtolerance="10"
     guidetolerance="10"
     inkscape:pageopacity="0"
     inkscape:pageshadow="2"
     inkscape:window-width="1442"
     inkscape:window-height="862"
     id="namedview2202"
     showgrid="false"
     fit-margin-top="0"
     fit-margin-left="0"
     fit-margin-right="0"
     fit-margin-bottom="0"
     inkscape:zoom="0.31056552"
     inkscape:cx="45.997761"
     inkscape:cy="-214.38975"
     inkscape:window-x="0"
     inkscape:window-y="0"
     inkscape:window-maximized="0"
     inkscape:current-layer="g2208" /><g
     id="g2208"
     inkscape:groupmode="layer"
     inkscape:label="ink_ext_XXXXXX"
     transform="matrix(1.3333333,0,0,-1.3333333,-173.99724,469.90891)"><g
       id="g2214"
       clip-path="url(#clipPath2218)"
       transform="scale(0.1)"
       style="fill:none;stroke:none"><g
         id="g2220"
         transform="matrix(1119.2,0,0,529.2,2413.9,3006.9)"
         style="fill:none;stroke:none" /></g><g
       id="g2236"
       transform="scale(0.1)"><g
         clip-path="url(#clipPath2242)"
         id="g2238"><path
           inkscape:connector-curvature="0"
           id="path2254"
           style="fill:#387bb2;fill-opacity:1;fill-rule:nonzero;stroke:none"
           d="m 2422.02,2208.65 v -0.01 l -820.49,486.78 820.49,-1146.9 v 660.13" /></g></g><g
       id="g2256"
       transform="scale(0.1)"><g
         clip-path="url(#clipPath2262)"
         id="g2258"><path
           inkscape:connector-curvature="0"
           id="path2272"
           style="fill:#387bb2;fill-opacity:1;fill-rule:nonzero;stroke:none"
           d="m 2422.02,2436.44 -1103.61,654.75 138.3,-193.33 965.31,-572.7 v 111.28" /></g></g><g
       id="g2276"
       clip-path="url(#clipPath2280)"
       transform="scale(0.1)"><path
         d="m 2422.03,2325.16 965.54,572.69 138.35,193.34 -1103.9,-654.75 v -111.28 h 0.01"
         style="fill:#fecb38;fill-opacity:1;fill-rule:nonzero;stroke:none"
         id="path2292"
         inkscape:connector-curvature="0" /></g><g
       id="g2294"
       transform="scale(0.1)"><g
         clip-path="url(#clipPath2300)"
         id="g2296"><path
           inkscape:connector-curvature="0"
           id="path2312"
           style="fill:#fecb38;fill-opacity:1;fill-rule:nonzero;stroke:none"
           d="m 2422.02,1548.52 820.7,1146.91 -820.7,-486.78 z" /></g></g><g
       id="g6796"
       transform="matrix(0.63719575,0,0,0.63719575,62.602926,-317.12889)"><path
         id="path6786"
         d="m 329.75283,597.62869 c -9.30854,2.10857 -14.19358,6.43124 -15.94115,14.10598 -1.27305,5.59081 -1.14283,82.12199 0.14115,82.95208 1.25272,0.80988 16.78513,3.36836 17.6,2.89905 0.33,-0.19005 0.60056,-17.69431 0.60124,-38.89834 0.002,-44.20077 -0.16215,-43.03872 6.39876,-45.45701 4.05693,-1.49534 4.09775,-1.7132 2.15382,-11.49578 -0.93869,-4.72387 -0.99823,-4.8024 -3.75382,-4.95133 -1.54,-0.0832 -4.78,0.29716 -7.2,0.84535 z"
         style="fill:#377ab1;stroke-width:0.80000001"
         inkscape:connector-curvature="0" /><path
         id="path6784"
         d="m 365.77222,597.81714 c -20.45321,5.49627 -30.06462,30.53582 -19.95589,51.98883 6.97242,14.79701 26.00322,21.72072 42.61696,15.50472 5.57673,-2.08652 12.90092,-8.60422 15.93659,-14.18175 7.69494,-14.13814 5.24561,-34.77372 -5.38983,-45.40915 -7.94582,-7.94582 -21.25812,-11.11382 -33.20783,-7.90265 z"
         style="fill:#377ab1;stroke-width:0.80000001"
         inkscape:connector-curvature="0" /><path
         id="path6782"
         d="m 381.76169,615.13467 c 5.4237,2.75169 7.59114,7.60557 7.59114,17 0,6.16327 -0.3013,7.83568 -2.02163,11.22135 -5.02521,9.88981 -18.87987,9.99516 -23.86335,0.18148 -2.55495,-5.03131 -3.16808,-13.15981 -1.4379,-19.0628 2.81713,-9.61141 11.29087,-13.62246 19.73174,-9.34003 z"
         style="fill:#ffffff;stroke-width:0.80000001"
         inkscape:connector-curvature="0" /><path
         id="path6780"
         d="m 432.74041,597.40511 c -9.65908,2.27565 -15.4306,8.50955 -17.31476,18.70186 -1.30185,7.04242 -1.19009,65.58364 0.12718,66.61394 0.81546,0.63782 14.05992,2.9802 17,3.00659 0.46729,0.004 0.96635,-3.98535 1.2,-9.59283 l 0.4,-9.6 11.2,-0.4 11.2,-0.4 v -7.6 -7.6 l -11.2,-0.4 -11.2,-0.4 -0.24116,-12.4 c -0.2993,-15.38874 0.1337,-18.60681 2.92374,-21.72941 2.66566,-2.98339 7.40906,-3.7329 14.6316,-2.31195 5.83106,1.14718 5.71941,1.25124 7.00412,-6.52795 0.67347,-4.07799 0.6869,-5.90147 0.0491,-6.66993 -2.25968,-2.72274 -18.46437,-4.41382 -25.77985,-2.69032 z"
         style="fill:#377ab1;stroke-width:0.80000001"
         inkscape:connector-curvature="0" /><path
         id="path6778"
         d="m 107.11089,598.64328 c -0.30693,0.30694 -0.55806,21.87398 -0.55806,47.92677 0,36.94449 0.22007,47.54084 1,48.15086 0.81546,0.63782 14.05992,2.9802 17,3.00659 0.49269,0.005 0.95366,-5.98547 1.2,-15.59283 0.38608,-15.05705 0.45569,-15.58988 2,-15.30913 0.88,0.15998 5.2,0.3331 9.6,0.38471 5.90692,0.0693 9.12656,-0.29446 12.30582,-1.39031 5.87912,-2.02644 11.31246,-7.42733 13.76751,-13.68527 1.82935,-4.66301 1.88371,-5.49638 1.90488,-29.2 l 0.0218,-24.4 h -9.2 -9.2 l -0.4,22.4 c -0.33666,18.85276 -0.61714,22.87963 -1.77121,25.42879 -2.17417,4.80241 -8.54946,6.60629 -16.01775,4.5322 l -2.98897,-0.8301 -0.21103,-25.76544 -0.21104,-25.76545 -8.84194,-0.22472 c -4.86307,-0.1236 -9.09307,0.0264 -9.4,0.33333 z"
         style="fill:#377ab1;stroke-width:0.80000001"
         inkscape:connector-curvature="0" /><path
         id="path6776"
         d="m 191.70641,600.09323 c -4.98305,7.6051 -23.55358,58.65529 -23.55358,64.74855 0,1.19496 1.06748,1.31751 9.73443,1.11752 l 9.73443,-0.22463 3.81745,-13.2 c 5.43128,-18.78032 8.98756,-29.21681 9.91369,-29.09338 0.70059,0.0934 7.04621,18.44441 12.54991,36.29338 l 1.85009,6 9.4,0.2254 c 8.84092,0.21197 9.4,0.13326 9.4,-1.32353 0,-6.2592 -21.9307,-63.86394 -25.08483,-65.88962 -0.50335,-0.32326 -4.41687,-0.59326 -8.69673,-0.6 -7.38006,-0.0116 -7.84777,0.0888 -9.06486,1.94631 z"
         style="fill:#377ab1;stroke-width:0.80000001"
         inkscape:connector-curvature="0" /><path
         id="path6774"
         d="m 239.91019,598.64398 c -0.30654,0.30655 -0.55736,19.92469 -0.55736,43.59588 0,41.26834 0.0617,43.07155 1.50049,43.84156 2.63191,1.40855 20.11329,2.68854 29.69951,2.1746 10.62319,-0.56954 16.89742,-2.04963 23.46081,-5.53445 9.39709,-4.98935 12.93919,-11.83431 12.93919,-25.0045 0,-7.44645 -0.18721,-8.39782 -2.62792,-13.35489 -5.27042,-10.70416 -15.47665,-15.42396 -35.77208,-16.54251 l -8.8,-0.485 -0.4,-14.4 -0.4,-14.4 -9.24264,-0.22402 c -5.08345,-0.12322 -9.49345,0.0268 -9.8,0.33333 z"
         style="fill:#377ab1;stroke-width:0.80000001"
         inkscape:connector-curvature="0" /><path
         id="path6772"
         d="m 279.16315,646.54515 c 5.09932,2.05076 6.98528,5.21611 6.9877,11.72802 0.002,6.18661 -1.44411,8.79445 -6.26549,11.29652 -3.18202,1.65132 -14.66452,2.80728 -18.44943,1.85733 l -2.0831,-0.52283 v -12.65143 c 0,-6.95828 0.27,-12.933 0.6,-13.27716 1.0335,-1.07782 15.58343,0.11096 19.21032,1.56955 z"
         style="fill:#ffffff;stroke-width:0.80000001"
         inkscape:connector-curvature="0" /></g><path
       style="fill:#387bb2;fill-opacity:1;stroke:none;stroke-width:0.75px;stroke-linecap:butt;stroke-linejoin:miter;stroke-opacity:1"
       d="m 352.592,309.119 -13.59348,-8.00498 -96.74891,38.48826 v 12.82941 z"
       id="path6702"
       inkscape:connector-curvature="0" /><path
       style="opacity:1;fill:#387bb2;fill-opacity:1;stroke:none;stroke-width:0.75px;stroke-linecap:butt;stroke-linejoin:miter;stroke-opacity:1"
       d="M 242.24381,328.94296 328.50476,294.77914 242.202,243.644 Z"
       id="path6704"
       inkscape:connector-curvature="0"
       sodipodi:nodetypes="cccc" /></g></svg>